<?xml version="1.0" encoding="UTF-8"?>
<svg width="1024px" height="1024px" viewBox="0 0 1024 1024" version="1.1" xmlns="http://www.w3.org/2000/svg" xmlns:xlink="http://www.w3.org/1999/xlink">
    <!-- Generator: Sketch 60.1 (88133) - https://sketch.com -->
    <title>v5</title>
    <desc>Created with Sketch.</desc>
    <defs>
        <linearGradient x1="12.562804%" y1="25.5701074%" x2="32.3592697%" y2="43.702829%" id="linearGradient-1">
            <stop stop-color="#17B1E8" offset="0%"></stop>
            <stop stop-color="#147EA8" offset="100%"></stop>
        </linearGradient>
        <linearGradient x1="18.0513229%" y1="18.3026185%" x2="88.8572532%" y2="79.8205381%" id="linearGradient-2">
            <stop stop-color="#17B1E8" offset="0%"></stop>
            <stop stop-color="#147EA8" offset="100%"></stop>
        </linearGradient>
        <linearGradient x1="55.5065081%" y1="38.8653747%" x2="50%" y2="170.951133%" id="linearGradient-3">
            <stop stop-color="#128EBD" offset="0%"></stop>
            <stop stop-color="#106E93" offset="100%"></stop>
        </linearGradient>
    </defs>
    <g id="v5" stroke="none" stroke-width="1" fill="none" fill-rule="evenodd">
        <path d="M125.896894,751.374788 C142.613634,857.124929 208.619085,910 323.913246,910 C447.294296,910 537.851364,880.64523 595.584449,821.935689 L674.087495,726.071387 C692.070931,715.580067 653.171231,712.54498 557.388397,716.966128 C461.605563,721.387275 317.775062,732.856828 125.896894,751.374788 Z" id="mouth" fill="#D7B88C"></path>
        <path d="M817.31408,621 L960.524996,592.50966 C964.858355,591.647583 967.672385,587.435849 966.810308,583.10249 C966.635989,582.226249 966.316125,581.385397 965.863993,580.614837 C952.23946,557.394786 938.504044,538.999328 924.657744,525.428463 C908.930627,510.014194 880.004684,488.392094 837.879916,460.562163 L811.804896,306.852475 C809.051245,303.114906 812.543719,297.141509 822.282316,288.932284 C830.96548,281.612744 849.477271,269.120068 877.817688,251.454258 L877.817686,251.454255 C881.567166,249.117042 882.712034,244.182802 880.374821,240.433322 C879.74019,239.415214 878.884701,238.552876 877.871685,237.910147 C837.817816,212.497135 807.161972,196.280835 785.904153,189.261248 C762.788669,181.628237 739.121063,179.284638 714.901335,182.23045 L257.616164,333.535313 C195.492578,297.949303 144.237812,276.609242 103.851867,269.515129 C63.7517244,262.471221 20.7660692,274.36999 16.1234699,295.004744 C14.2420674,303.366929 34.1541828,331.705462 55.8872334,373.122821 C65.383653,391.220447 81.3718642,424.317496 103.851867,472.413969 L817.31408,621 Z" id="back-spike-+-right-ear" fill="url(#linearGradient-1)"></path>
        <path d="M244.053962,792.648454 C304.222885,795.245605 360.278748,801.120708 397.992124,795.919192 C410.369455,794.212082 423.842813,788.313978 438.412197,778.224882 L553.603727,610.538291 L410.457798,430 L76.3937888,509.010423 L98.7607752,678.862349 L137.268748,751.603149 C145.273436,771.387165 155.910466,783.580372 169.179837,788.182769 C186.543639,794.205295 216.035283,791.439046 244.053962,792.648454 Z" id="Eyes" fill="#FFFFFF"></path>
        <path d="M115.108541,453 C96.6493751,417.184714 83.7170068,390.735778 76.3114357,373.653191 C68.9058646,356.570605 62.6629223,338.787448 57.5826087,320.303723 C62.8280245,318.583232 73.1253089,324.17226 88.474462,337.070806 C103.823615,349.969352 126.858422,376.915003 157.578882,417.907758 L115.108541,453 Z" id="Right-ear-Inside" fill="#E6C89C"></path>
        <path d="M126.344348,751.459794 C103.624553,710.0526 87.1773181,670.249235 77.0026422,632.0497 C70.3914683,607.228883 42.378048,523.485229 53.0508844,473.909336 C55.9696527,460.351502 70.3697998,453.999076 96.2513256,454.852059 L96.2513251,454.852074 C97.3249862,454.887458 98.3356217,454.346068 98.9010171,453.432653 C203.664141,284.18426 324.700524,178.586002 462.010169,136.637878 C578.390777,101.08358 682.136286,105.637835 773.246695,150.300644 C777.213944,152.245411 778.85349,157.038046 776.908723,161.005295 C776.774014,161.280096 776.623647,161.546941 776.458364,161.804514 L718.579743,252.00075 C716.491852,255.254457 717.436931,259.584678 720.690637,261.672571 C721.225452,262.01576 721.804508,262.284527 722.411847,262.471465 C812.143855,290.090903 872.891141,314.506939 904.653705,335.719576 C935.681825,356.441713 967.909904,394.605032 1001.33794,450.209533 L1001.33794,450.209534 C1003.6144,453.996211 1002.39012,458.911351 998.603442,461.187807 C997.842904,461.645023 997.011595,461.972517 996.143564,462.156874 C938.305343,474.440851 895.295516,485.700892 867.114084,495.936998 C843.424216,504.541671 824.239994,513.463345 809.561419,522.702019 L809.561417,522.702014 C806.289543,524.761327 805.306568,529.083107 807.365881,532.354981 C808.112367,533.541011 809.197659,534.475679 810.481284,535.038008 C854.392124,554.274411 885.782931,572.365767 904.653705,589.312079 C934.122092,615.775247 957.009252,649.300181 973.315186,689.886881 L973.31519,689.88688 C974.9623,693.986663 972.974017,698.645441 968.874233,700.292552 C968.288259,700.527971 967.676471,700.693179 967.051646,700.784728 C857.975897,716.76642 782.300026,731.762913 740.024036,745.774207 C696.480983,760.205435 648.349993,785.614033 595.631066,822 C628.40861,780.261026 630.323007,750.916334 601.374258,733.965925 C562.194174,711.024745 508.094643,725.707726 439.075667,778.014868 C474.549712,717.809509 493.496378,673.804937 495.915664,646.001152 C503.655741,557.047883 455.161164,489.181468 402.518224,483.567177 C277.894977,470.276293 318.255578,733.965925 241.377201,733.965925 C170.897878,733.965925 129.12854,547.492284 103.151546,551.278387 C89.2212907,553.308698 86.4787849,589.338626 103.151546,658.657687 C108.121616,679.321368 119.648393,710.255403 137.731876,751.459794 L126.344348,751.459794 Z" id="Skull" fill="url(#linearGradient-2)"></path>
        <path d="M208.337186,856 C225.981095,856 276.386335,856 276.386335,828.589001 C276.386335,801.178002 225.981095,796 208.337186,796 C190.693276,796 176.390062,798.14038 176.390062,826 C176.390062,842.568507 190.693276,856 208.337186,856 Z" id="Nose" fill="#4A4949"></path>
        <path d="M381.316515,405.731527 C403.30064,421.675626 431.227305,432.812552 465.09651,439.142305 C503.441027,446.30844 547.746298,450.766637 598.012323,452.516894 L598.012323,452.516891 C605.739625,452.785954 612.22196,446.739858 612.491024,439.012556 C612.523321,438.084993 612.463301,437.156516 612.311848,436.240831 C604.091795,386.542403 595.503066,350.924166 586.54566,329.386121 C578.258492,309.459662 563.536526,281.477625 542.379762,245.440011 L542.379763,245.440011 C535.669155,234.009421 520.962808,230.18312 509.532219,236.893728 C508.901103,237.26424 508.287265,237.663425 507.692628,238.090032 C467.790666,266.716689 439.369714,289.409772 422.429775,306.169282 C405.748759,322.672625 389.660207,345.66103 374.164119,375.134497 L374.164119,375.134497 C368.612494,385.693655 371.659323,398.727599 381.316515,405.731527 Z" id="Left-ear-outside" fill="url(#linearGradient-3)"></path>
        <path d="M418.137668,384.756552 C437.958799,395.309484 460.553826,403.636292 485.922749,409.736976 C511.503582,415.88862 538.457965,419.274798 566.785898,419.89551 L566.785898,419.895509 C571.203115,419.992297 574.862439,416.489898 574.959228,412.072681 C574.970826,411.543369 574.929851,411.014213 574.836906,410.492996 C571.128271,389.695787 565.014563,367.864788 556.495783,345 C547.644353,321.242364 536.468545,298.600831 522.96836,277.0754 L522.968365,277.075397 C520.620832,273.332364 515.683453,272.201086 511.940419,274.548619 C511.809547,274.630698 511.681081,274.716551 511.55518,274.806069 C487.207904,292.117601 466.966319,309.447027 450.830424,326.794348 C435.645118,343.119712 423.697751,358.742221 414.988323,373.661877 L414.988326,373.661879 C412.760883,377.477592 414.048431,382.376537 417.864143,384.603979 C417.954314,384.656617 418.045506,384.707484 418.137668,384.756552 Z" id="Left-ear-inside" fill="#E7C89D"></path>
    </g>
</svg>