<?xml version="1.0" encoding="UTF-8"?>
<svg width="1024px" height="1024px" viewBox="0 0 1024 1024" version="1.1" xmlns="http://www.w3.org/2000/svg" xmlns:xlink="http://www.w3.org/1999/xlink">
    <title>v5 - Solid</title>
    <g id="v5---Solid" stroke="none" stroke-width="1" fill="#000000" fill-rule="evenodd">
        <path d="M788.083027,133.933015 C792.049098,135.880184 793.685739,140.673813 791.738569,144.639883 C791.60396,144.91406 791.453759,145.180302 791.288705,145.437303 L777.085674,167.551932 C785.119732,168.977056 793.091651,170.999073 801.001432,173.617984 C823.20161,180.968413 855.253585,197.985467 897.157357,224.669146 C898.163404,225.309781 899.013477,226.16726 899.64536,227.178828 C901.986121,230.926095 900.845921,235.861418 897.098654,238.202178 L897.098654,238.202178 L896.209218,238.758073 C866.960141,257.048573 847.840051,269.993547 838.848949,277.592996 C836.427807,279.63939 834.377741,281.5526 832.698749,283.332626 C874.097373,298.920803 904.686554,313.314734 924.468762,326.515271 C956.49638,347.887089 989.752911,387.106041 1024.23835,444.172127 L1025.28374,445.906866 C1027.55956,449.693927 1026.33445,454.60886 1022.54739,456.884677 C1021.78639,457.342 1020.95456,457.669453 1020.08602,457.85361 C969.221449,468.638499 929.353006,478.664713 900.480695,487.93225 C920.4846,502.43386 935.443583,514.55684 945.359434,524.30151 C959.851593,538.543487 974.226999,557.87908 988.485652,582.308288 C988.932206,583.073365 989.248587,583.907299 989.421879,584.776047 C990.28618,589.108962 987.474313,593.322139 983.141398,594.186442 L983.141398,594.186442 L937.990608,603.192439 C962.014328,628.199008 981.198113,658.394578 995.541964,693.779149 L996.053235,695.047723 C997.696633,699.148991 995.704135,703.805963 991.602867,705.44936 C991.018428,705.683548 990.408385,705.847923 989.785404,705.939073 C876.092201,722.573858 797.22863,738.182127 753.194691,752.763879 C707.985737,767.734735 658.022937,794.07044 603.306291,831.770993 L602.855221,832.322795 C542.766083,893.440932 448.513436,924 320.09728,924 C200.098033,924 131.39894,868.955696 114,758.867087 C114.668035,758.802602 115.33551,758.738199 116.002425,758.673879 L114.747086,758.674003 C91.1103277,715.631546 73.9992874,674.256257 63.4139648,634.548137 C56.5359661,608.74709 27.391933,521.696211 38.4955216,470.162455 C41.5030917,456.20378 56.2283734,449.592698 82.6713668,450.32921 C63.8256798,410.161639 50.1014597,381.858281 41.4983227,365.419034 C18.8874502,322.213198 -1.82893741,292.650956 0.128456985,283.927676 C4.95857597,262.401876 49.6804693,249.989296 91.400301,257.337374 C121.616331,262.659297 157.680264,275.666726 199.592099,296.35966 C280.112907,207.720322 368.235504,148.790943 463.960273,119.571391 C585.176291,82.5707501 693.217209,87.3579579 788.083027,133.933015 Z" id="Combined-Shape" fill="#000000"></path>
    </g>
</svg>